<?xml version="1.0" standalone="no"?>
<!DOCTYPE svg PUBLIC "-//W3C//DTD SVG 20010904//EN"
 "http://www.w3.org/TR/2001/REC-SVG-20010904/DTD/svg10.dtd">
<svg version="1.0" xmlns="http://www.w3.org/2000/svg"
 width="512.000000pt" height="512.000000pt" viewBox="0 0 512.000000 512.000000"
 preserveAspectRatio="xMidYMid meet">
<metadata>
Created by potrace 1.16, written by Peter Selinger 2001-2019
</metadata>
<g transform="translate(0.000000,512.000000) scale(0.100000,-0.100000)"
fill="#000000" stroke="none">
<path d="M2420 4940 c-27 -27 -25 -72 5 -190 14 -52 25 -98 25 -102 0 -5 -189
-8 -420 -8 -401 0 -422 -1 -475 -21 -74 -28 -146 -100 -174 -174 -21 -54 -21
-71 -21 -730 l0 -675 40 0 40 0 0 -80 0 -80 -580 0 c-567 0 -580 0 -600 -20
-20 -20 -20 -33 -20 -1340 0 -1307 0 -1320 20 -1340 20 -20 33 -20 1500 -20
1467 0 1480 0 1500 20 19 19 20 33 20 320 l0 300 80 0 80 0 0 -40 0 -40 275 0
c252 0 279 2 329 21 67 25 133 86 166 154 l25 50 3 408 3 407 -41 0 -40 0 0
84 0 84 68 20 c37 11 92 28 123 37 31 8 66 27 79 40 23 24 23 27 16 172 l-6
148 144 44 c116 34 153 50 186 78 130 112 111 313 -37 400 -77 45 -146 39
-372 -30 -101 -32 -188 -57 -193 -57 -4 0 -8 41 -8 90 l0 90 40 0 40 0 0 715
c0 700 0 715 -21 770 -28 74 -100 146 -174 174 -53 20 -74 21 -475 21 -231 0
-420 3 -420 8 0 4 11 50 25 102 30 118 32 163 5 190 -19 19 -33 20 -380 20
-347 0 -361 -1 -380 -20z m590 -152 c0 -7 -11 -56 -25 -108 -31 -120 -31 -145
0 -175 23 -24 29 -25 160 -25 l135 0 0 -80 0 -80 -480 0 -480 0 0 80 0 80 135
0 c131 0 137 1 160 25 31 30 31 55 0 175 -14 52 -25 101 -25 108 0 9 49 12
210 12 161 0 210 -3 210 -12z m750 -1268 l0 -640 40 0 40 0 0 -103 0 -103
-727 -218 -728 -218 -60 -54 c-33 -29 -102 -93 -152 -141 -79 -75 -93 -93 -93
-119 0 -64 19 -74 221 -110 101 -19 195 -34 208 -34 17 0 902 260 1314 386 15
5 17 -3 17 -79 l0 -85 -50 -12 c-28 -7 -52 -15 -54 -19 -3 -5 33 -140 40 -150
2 -2 17 1 33 7 l31 11 0 -80 0 -79 -40 0 -40 0 0 -240 0 -240 -160 0 -160 0 0
-40 0 -40 -80 0 -80 0 0 215 c0 216 0 216 -25 240 l-24 25 -696 0 -695 0 0
615 0 616 -25 24 c-13 14 -31 25 -40 25 -12 0 -15 15 -15 80 l0 80 40 0 40 0
0 560 0 560 960 0 960 0 0 -640z m909 -816 c27 -35 27 -75 -1 -101 -20 -18
-225 -90 -233 -81 -2 2 -6 37 -10 79 l-7 76 73 22 c41 12 79 24 84 26 34 12
75 3 94 -21z m-3949 -199 c0 -216 0 -216 25 -240 l24 -25 271 0 271 0 24 25
c25 24 25 24 25 240 l0 215 160 0 160 0 0 -560 0 -560 -640 0 -640 0 0 560 0
560 160 0 160 0 0 -215z m480 55 l0 -160 -160 0 -160 0 0 160 0 160 160 0 160
0 0 -160z m3063 -7 c3 -43 4 -79 2 -82 -5 -4 -1224 -371 -1234 -371 -4 0 -15
33 -27 74 l-21 74 631 190 c347 104 634 190 637 191 3 1 9 -34 12 -76z m11
-309 c13 -96 12 -99 -47 -117 -30 -9 -57 -17 -61 -17 -4 0 -6 35 -4 77 l3 77
40 12 c60 18 62 18 69 -32z m-1426 -116 c11 -40 19 -74 18 -76 -2 -2 -84 -27
-182 -57 l-178 -54 -84 16 -84 16 58 58 59 59 180 54 c99 30 183 55 186 55 3
1 15 -31 27 -71z m-2128 -903 c0 -216 0 -216 25 -240 l24 -25 271 0 271 0 24
25 c25 24 25 24 25 240 l0 215 160 0 160 0 0 -560 0 -560 -640 0 -640 0 0 560
0 560 160 0 160 0 0 -215z m480 55 l0 -160 -160 0 -160 0 0 160 0 160 160 0
160 0 0 -160z m960 -55 c0 -216 0 -216 25 -240 l24 -25 271 0 271 0 24 25 c25
24 25 24 25 240 l0 215 160 0 160 0 0 -560 0 -560 -640 0 -640 0 0 560 0 560
160 0 160 0 0 -215z m480 55 l0 -160 -160 0 -160 0 0 160 0 160 160 0 160 0 0
-160z"/>
<path d="M2025 3975 c-25 -24 -25 -26 -25 -215 0 -257 -17 -240 240 -240 257
0 240 -17 240 240 0 257 17 240 -240 240 -189 0 -191 0 -215 -25z m295 -215
l0 -80 -80 0 -80 0 0 80 0 80 80 0 80 0 0 -80z"/>
<path d="M2640 3920 l0 -80 80 0 80 0 0 80 0 80 -80 0 -80 0 0 -80z"/>
<path d="M2960 3920 l0 -80 320 0 320 0 0 80 0 80 -320 0 -320 0 0 -80z"/>
<path d="M2640 3600 l0 -80 480 0 480 0 0 80 0 80 -480 0 -480 0 0 -80z"/>
<path d="M2025 3255 c-25 -24 -25 -26 -25 -215 0 -257 -17 -240 240 -240 257
0 240 -17 240 240 0 257 17 240 -240 240 -189 0 -191 0 -215 -25z m295 -215
l0 -80 -80 0 -80 0 0 80 0 80 80 0 80 0 0 -80z"/>
<path d="M2640 3200 l0 -80 80 0 80 0 0 80 0 80 -80 0 -80 0 0 -80z"/>
<path d="M2960 3200 l0 -80 320 0 320 0 0 80 0 80 -320 0 -320 0 0 -80z"/>
<path d="M2640 2880 l0 -80 480 0 480 0 0 80 0 80 -480 0 -480 0 0 -80z"/>
<path d="M1360 1840 l0 -80 80 0 80 0 0 80 0 80 -80 0 -80 0 0 -80z"/>
<path d="M1360 560 l0 -80 80 0 80 0 0 80 0 80 -80 0 -80 0 0 -80z"/>
<path d="M2800 560 l0 -80 80 0 80 0 0 80 0 80 -80 0 -80 0 0 -80z"/>
</g>
</svg>
